# xmcd CD database file
#
# Track frame offsets:
#	150
#	16031
#	33775
#	53061
#	70176
#	81803
#	107039
#	127177
#	150215
#	166182
#	188626
#
# Disc length: 2694 seconds
#
# Revision: 2
# Processed by: cddbd v1.5.2PL0 Copyright (c) Steve Scherf et al.
# Submitted via: CDex 1.51
#
DISCID=780a840b
DTITLE=Southside Johnny and The Asbury Jukes - Into The Harbour
DYEAR=2006
DGENRE=Blues
TTITLE0=Happy
TTITLE1=Dancing On The Edge Of The World
TTITLE2=You're My Girl (I Don't Want To Discuss It)
TTITLE3=Into The Harbour
TTITLE4=Hang Down Your Head
TTITLE5=The Time Between
TTITLE6=When Rita Leaves
TTITLE7=Don't Call Me Baby
TTITLE8=Tear Stained Letter
TTITLE9=All In My Mind
TTITLE10=Nothing But A Heartache
EXTD=YEAR: 2006
EXTT0=
EXTT1=
EXTT2=
EXTT3=
EXTT4=
EXTT5=
EXTT6=
EXTT7=
EXTT8=
EXTT9=
EXTT10=
PLAYORDER=
